<svg width="0" height="0" class="hidden">
  <symbol version="1.1" id="cart" xmlns="http://www.w3.org/2000/svg" xmlns:xlink="http://www.w3.org/1999/xlink" x="0px" y="0px" xml:space="preserve" viewBox="0 0 450.391 450.391">
    <g>
      <g>
        <g>
          <path d="M143.673,350.322c-25.969,0-47.02,21.052-47.02,47.02c0,25.969,21.052,47.02,47.02,47.02
                    c25.969,0,47.02-21.052,47.02-47.02C190.694,371.374,169.642,350.322,143.673,350.322z M143.673,423.465
                    c-14.427,0-26.122-11.695-26.122-26.122c0-14.427,11.695-26.122,26.122-26.122c14.427,0,26.122,11.695,26.122,26.122
                    C169.796,411.77,158.1,423.465,143.673,423.465z"></path>
          <path d="M342.204,350.322c-25.969,0-47.02,21.052-47.02,47.02c0,25.969,21.052,47.02,47.02,47.02s47.02-21.052,47.02-47.02
                    C389.224,371.374,368.173,350.322,342.204,350.322z M342.204,423.465c-14.427,0-26.122-11.695-26.122-26.122
                    c0-14.427,11.695-26.122,26.122-26.122s26.122,11.695,26.122,26.122C368.327,411.77,356.631,423.465,342.204,423.465z"></path>
          <path d="M448.261,76.037c-2.176-2.377-5.153-3.865-8.359-4.18L99.788,67.155L90.384,38.42
                    C83.759,19.211,65.771,6.243,45.453,6.028H10.449C4.678,6.028,0,10.706,0,16.477s4.678,10.449,10.449,10.449h35.004
                    c11.361,0.251,21.365,7.546,25.078,18.286l66.351,200.098l-5.224,12.016c-5.827,15.026-4.077,31.938,4.702,45.453
                    c8.695,13.274,23.323,21.466,39.184,21.943h203.233c5.771,0,10.449-4.678,10.449-10.449c0-5.771-4.678-10.449-10.449-10.449
                    H175.543c-8.957-0.224-17.202-4.936-21.943-12.539c-4.688-7.51-5.651-16.762-2.612-25.078l4.18-9.404l219.951-22.988
                    c24.16-2.661,44.034-20.233,49.633-43.886l25.078-105.012C450.96,81.893,450.36,78.492,448.261,76.037z M404.376,185.228
                    c-3.392,15.226-16.319,26.457-31.869,27.69l-217.339,22.465L106.58,88.053l320.261,4.702L404.376,185.228z"></path>
        </g>
      </g>
    </g>
    <g></g>
    <g></g>
    <g></g>
    <g></g>
    <g></g>
    <g></g>
    <g></g>
    <g></g>
    <g></g>
    <g></g>
    <g></g>
    <g></g>
    <g></g>
    <g></g>
    <g></g>
  </symbol>
  <symbol version="1.1" id="infinty" xmlns="http://www.w3.org/2000/svg" xmlns:xlink="http://www.w3.org/1999/xlink" x="0px" y="0px" xml:space="preserve" viewBox="0 0 596.416 596.416">
    <g>
      <g>
        <path d="M136.363,434.07c36.291,0,70.408-14.132,96.069-39.793l65.776-65.776l65.776,65.776
                c25.661,25.661,59.779,39.793,96.069,39.793c36.291,0,70.408-14.133,96.069-39.793c25.661-25.661,39.793-59.779,39.793-96.069
                c0-36.291-14.132-70.408-39.793-96.069s-59.778-39.793-96.069-39.793c-36.29,0-70.408,14.132-96.069,39.793l-65.776,65.777
                l-65.776-65.776c-25.661-25.661-59.779-39.793-96.069-39.793c-36.291,0-70.408,14.132-96.069,39.793
                C14.632,227.8,0.5,261.918,0.5,298.209c0,36.289,14.132,70.407,39.793,96.068C65.955,419.938,100.072,434.07,136.363,434.07z
                 M394.277,232.431c17.569-17.569,40.93-27.246,65.776-27.246c24.848,0,48.207,9.676,65.776,27.246
                c17.57,17.569,27.247,40.93,27.247,65.777c0,24.847-9.677,48.206-27.247,65.776c-17.569,17.569-40.929,27.246-65.776,27.246
                c-24.847,0-48.207-9.677-65.776-27.246L328.5,298.208L394.277,232.431z M70.586,232.431
                c17.569-17.569,40.929-27.246,65.776-27.246s48.207,9.676,65.776,27.246l65.777,65.777l-65.778,65.777
                c-17.569,17.569-40.929,27.245-65.776,27.245s-48.208-9.676-65.777-27.245c-17.569-17.57-27.245-40.93-27.245-65.776
                C43.341,273.361,53.016,250.001,70.586,232.431z"></path>
        <path d="M460.054,434.57c-36.424,0-70.668-14.184-96.423-39.939l-65.423-65.423l-65.422,65.423
                c-25.755,25.756-59.999,39.939-96.423,39.939s-70.667-14.184-96.423-39.939C14.184,368.875,0,334.632,0,298.209
                c0-36.424,14.184-70.668,39.939-96.423c25.756-25.755,60-39.939,96.423-39.939c36.424,0,70.667,14.184,96.423,39.939
                l65.423,65.423l65.423-65.423c25.756-25.755,59.999-39.939,96.423-39.939s70.668,14.184,96.423,39.939
                s39.939,59.999,39.939,96.423s-14.185,70.668-39.939,96.423C530.721,420.387,496.477,434.57,460.054,434.57z M298.208,327.794
                l66.13,66.13c25.566,25.566,59.559,39.646,95.716,39.646c36.156,0,70.148-14.08,95.716-39.646
                c25.566-25.566,39.646-59.559,39.646-95.716c0-36.157-14.08-70.149-39.646-95.716s-59.559-39.646-95.716-39.646
                c-36.156,0-70.148,14.08-95.716,39.646l-66.13,66.13l-66.13-66.13c-25.566-25.566-59.559-39.646-95.716-39.646
                c-36.156,0-70.149,14.08-95.716,39.646C15.08,228.059,1,262.052,1,298.209c0,36.155,14.08,70.147,39.646,95.715
                c25.567,25.566,59.56,39.646,95.716,39.646s70.149-14.08,95.716-39.646L298.208,327.794z M460.054,391.73
                c-24.98,0-48.466-9.729-66.13-27.393l-66.131-66.13l66.131-66.13c17.664-17.664,41.149-27.392,66.13-27.392
                s48.466,9.728,66.13,27.392c17.665,17.664,27.394,41.149,27.394,66.13c0,24.979-9.729,48.465-27.394,66.13
                C508.52,382.002,485.034,391.73,460.054,391.73z M329.207,298.208l65.424,65.423c17.476,17.476,40.71,27.1,65.423,27.1
                s47.947-9.624,65.423-27.1c17.476-17.477,27.101-40.71,27.101-65.423c0-24.714-9.625-47.948-27.101-65.423
                s-40.71-27.099-65.423-27.099s-47.947,9.624-65.423,27.099L329.207,298.208z M136.362,391.73c-24.981,0-48.467-9.728-66.13-27.392
                s-27.391-41.149-27.391-66.13c0-24.982,9.728-48.468,27.392-66.131c17.664-17.664,41.149-27.392,66.13-27.392
                s48.466,9.728,66.13,27.392l66.131,66.13l-66.131,66.131C184.829,382.003,161.343,391.73,136.362,391.73z M136.363,205.686
                c-24.713,0-47.948,9.624-65.423,27.099c-17.475,17.475-27.099,40.709-27.099,65.424c0,24.713,9.624,47.947,27.098,65.423
                c17.475,17.475,40.709,27.099,65.423,27.099s47.948-9.624,65.423-27.099l65.424-65.424l-65.424-65.423
                C184.311,215.31,161.076,205.686,136.363,205.686z"></path>
      </g>
    </g>
    <g></g>
    <g></g>
    <g></g>
    <g></g>
    <g></g>
    <g></g>
    <g></g>
    <g></g>
    <g></g>
    <g></g>
    <g></g>
    <g></g>
    <g></g>
    <g></g>
    <g></g>
  </symbol>
  <symbol version="1.1" id="organic" xmlns="http://www.w3.org/2000/svg" xmlns:xlink="http://www.w3.org/1999/xlink" x="0px" y="0px" xml:space="preserve" viewBox="0 0 512.001 512.001">
    <g>
      <g>
        <path d="M498.784,112.994c-8.038-8.018-18.575-12.621-29.841-13.083c12.846-17.59,11.334-42.469-4.539-58.342
                c-16.074-16.074-41.384-17.421-59.007-4.043C401.827,16.258,383.286,0,361.02,0c-24.811,0-44.997,20.186-44.997,44.997v57.771
                c-39.485-9.845-83.008,0.482-114.102,31.577C160.408,175.859,17.733,458.2,1.602,490.257c-2.938,5.838-1.758,12.906,2.917,17.473
                c4.674,4.567,11.768,5.581,17.536,2.508c49.336-26.292,310.043-166.66,349.572-206.187
                c30.873-30.874,41.369-74.521,31.498-114.086l63.909,0.1c24.81-0.015,44.982-20.304,44.967-45.227
                C511.993,132.797,507.299,121.488,498.784,112.994z M350.414,282.838c-4.517,4.517-12.829,10.825-23.984,18.443l-38.704-38.704
                c-5.858-5.858-15.356-5.858-21.213,0c-5.858,5.858-5.858,15.355,0,21.213l34.237,34.237c-22.62,14.244-50.689,30.93-80.789,48.321
                l-16.29-16.29c-5.857-5.858-15.355-5.858-21.213,0c-5.858,5.858-5.858,15.355,0,21.213l10.541,10.541
                c-49.754,28.34-102.125,57.17-142.916,79.284c13.612-26.549,29.895-57.934,47.035-90.357c5.953,5.481,15.085,5.244,20.748-0.42
                c5.858-5.858,5.858-15.355,0-21.213l-6.04-6.04c15.117-28.285,30.491-56.537,44.959-82.321l24.722,24.722
                c5.857,5.857,15.355,5.858,21.213,0c5.858-5.858,5.858-15.355,0-21.213l-30.557-30.557c22.195-38.463,40.864-68.028,50.973-78.137
                l42.426,42.426c5.858,5.858,15.355,5.858,21.213,0c5.858-5.858,5.858-15.355,0-21.213l-38.815-38.815
                c32.824-15.712,74.28-10.573,102.455,17.602C385.505,190.649,385.505,247.746,350.414,282.838z M467.048,160.066l-75.916,0.081
                c-5.202-9.168-11.698-17.995-19.505-25.801c-7.737-7.737-16.546-14.085-25.803-19.358v-69.79c0-8.269,6.928-15.197,15.197-15.197
                s14.997,6.728,14.997,14.997v27.531c0,13.303,16.164,20.05,25.606,10.607l20.354-20.353c5.85-5.849,15.365-5.848,21.214,0
                c5.848,5.849,5.848,15.365,0,21.213l-20.298,20.298c-9.428,9.428-2.725,25.607,10.606,25.607c0.004,0,0.008,0,0.012,0l33.5-0.028
                c0.01,0,0.019,0,0.029,0c8.287,0,14.956,6.699,14.961,14.985C482.006,153.238,475.283,160.06,467.048,160.066z"></path>
      </g>
    </g>
    <g></g>
    <g></g>
    <g></g>
    <g></g>
    <g></g>
    <g></g>
    <g></g>
    <g></g>
    <g></g>
    <g></g>
    <g></g>
    <g></g>
    <g></g>
    <g></g>
    <g></g>
  </symbol>
  <symbol xmlns="http://www.w3.org/2000/svg" id="timer" viewBox="-40 0 512 512">
    <path d="m382.867188 157.378906 20.074218-20.074218c7.800782-7.800782 7.800782-20.449219 0-28.246094-7.800781-7.800782-20.445312-7.800782-28.246094 0l-20.074218 20.074218c-33.679688-28.0625-74.605469-45.015624-118.261719-48.984374v-40.199219h19.308594c11.03125 0 19.972656-8.945313 19.972656-19.976563s-8.941406-19.972656-19.972656-19.972656h-78.566407c-11.03125 0-19.972656 8.941406-19.972656 19.972656s8.941406 19.976563 19.972656 19.976563h19.308594v40.199219c-109.28125 9.9375-196.410156 101.742187-196.410156 215.464843 0 119.59375 96.777344 216.386719 216.386719 216.386719 119.589843 0 216.382812-96.777344 216.382812-216.386719 0-51.085937-17.59375-99.464843-49.902343-138.234375zm-166.484376 314.671875c-97.285156 0-176.4375-79.148437-176.4375-176.4375 0-97.285156 79.152344-176.433593 176.4375-176.433593 97.289063 0 176.4375 79.148437 176.4375 176.433593 0 97.289063-79.148437 176.4375-176.4375 176.4375zm92.566407-269c7.800781 7.800781 7.800781 20.449219 0 28.246094l-78.441407 78.441406c-7.800781 7.800781-20.449218 7.800781-28.246093 0-7.800781-7.800781-7.800781-20.449219 0-28.246093l78.4375-78.441407c7.800781-7.800781 20.449219-7.800781 28.25 0zm0 0"></path>
  </symbol>
</svg>